<svg xmlns="http://www.w3.org/2000/svg" width="26.001" height="26.001" viewBox="0 0 26.001 26.001">
  <g id="Group_74119" data-name="Group 74119" transform="translate(-273.001 -1385.999)">
    <path id="Subtraction_1" data-name="Subtraction 1" d="M15411-113h-18a4,4,0,0,1-4-4v-18a4,4,0,0,1,4-4h18a4,4,0,0,1,4,4v18A4,4,0,0,1,15411-113Zm-6.823-14.513c.922,0,1.852.714,1.852,2.308v5.316h3.153v-6.41c0-2.972-2-4.026-3.705-4.026a3.709,3.709,0,0,0-3.263,1.674v-1.362h-3.145v10.124h3.145v-5.316A2.077,2.077,0,0,1,15404.179-127.513Zm-10.176-2.5v10.124h3.161v-10.124Zm1.582-4.43a1.578,1.578,0,0,0-1.57,1.582,1.578,1.578,0,0,0,1.57,1.582,1.577,1.577,0,0,0,1.567-1.582A1.577,1.577,0,0,0,15395.585-134.444Z" transform="translate(-15116 1525)"/>
  </g>
</svg>
