<svg xmlns="http://www.w3.org/2000/svg" viewBox="0 0 257.303 58">
  <g id="Group_74141" data-name="Group 74141" transform="translate(-44.662 -17.007)">
    <text id="thekua" transform="translate(206.965 62.007)" font-size="58" font-family="Gilroy-Bold" font-weight="700"><tspan x="-94" y="0">thekua</tspan></text>
    <g id="Group_74139" data-name="Group 74139" transform="translate(44.662 18.513)">
      <path id="Path_315" data-name="Path 315" d="M32.122,7.2c-7.331,0-14.486,1.764-19.632,4.841a17.766,17.766,0,0,0-5.88,5.377,12.4,12.4,0,0,0-2.036,7,21.846,21.846,0,0,0,2.141,9.13,30.411,30.411,0,0,0,5.93,8.5,29.875,29.875,0,0,0,8.362,6.02,21.03,21.03,0,0,0,9.009,2.17,22.165,22.165,0,0,0,8.368-1.5,16.2,16.2,0,0,0,5.828-3.988c3.361-3.619,5.138-8.869,5.138-15.183a35.635,35.635,0,0,0-1.19-9.5,20.981,20.981,0,0,0-3.3-7.014A13.972,13.972,0,0,0,39.787,8.8a17.37,17.37,0,0,0-7.664-1.6m0-6.053C47.957,1.151,55.4,13.73,55.4,29.564S45.851,56.292,30.017,56.292-1.478,40.258-1.478,24.424,16.288,1.151,32.122,1.151Z" transform="translate(1.478 -1.151)"/>
      <path id="Path_300" data-name="Path 300" d="M17.994,7.2A20.523,20.523,0,0,0,7.923,9.648,7.8,7.8,0,0,0,5.34,11.973a4.655,4.655,0,0,0-.764,2.665,12.691,12.691,0,0,0,3.945,8.429c2.457,2.5,5.542,3.986,8.253,3.986a8.292,8.292,0,0,0,6.362-2.37,10.186,10.186,0,0,0,2.3-7.067c0-3.384-.744-6.241-2.1-8.043-.763-1.017-2.146-2.37-5.344-2.37m0-6.053c9.176,0,13.492,7.29,13.492,16.466S25.95,33.105,16.774,33.105-1.478,23.814-1.478,14.638,8.818,1.151,17.994,1.151Z" transform="translate(13.436 10.443)"/>
    </g>
  </g>
</svg>
